<svg xmlns="http://www.w3.org/2000/svg" viewBox="0 0 1920 1080" preserveAspectRatio="xMidYMid slice">
  <defs>
    <linearGradient id="fg8" x1="0%" y1="0%" x2="100%" y2="100%">
      <stop offset="0%" stop-color="#1a237e"/>
      <stop offset="50%" stop-color="#283593"/>
      <stop offset="100%" stop-color="#0d1862"/>
    </linearGradient>
  </defs>
  <rect width="1920" height="1080" fill="url(#fg8)"/>
  <rect x="610" y="340" width="700" height="440" rx="12" fill="rgba(255,255,255,0.1)" stroke="rgba(255,255,255,0.2)" stroke-width="3"/>
  <path d="M610,340 L960,580 L1310,340" stroke="rgba(255,255,255,0.25)" stroke-width="3" fill="none"/>
  <path d="M610,780 L810,600" stroke="rgba(255,255,255,0.1)" stroke-width="2"/>
  <path d="M1310,780 L1110,600" stroke="rgba(255,255,255,0.1)" stroke-width="2"/>
  <path d="M200,180 Q200,130 250,130 L480,130 Q530,130 530,180 L530,300 Q530,350 480,350 L320,350 L280,400 L300,350 L250,350 Q200,350 200,300Z" fill="rgba(63,81,181,0.2)" stroke="rgba(255,255,255,0.15)" stroke-width="2"/>
  <circle cx="310" cy="240" r="12" fill="rgba(255,255,255,0.2)"/>
  <circle cx="365" cy="240" r="12" fill="rgba(255,255,255,0.2)"/>
  <circle cx="420" cy="240" r="12" fill="rgba(255,255,255,0.2)"/>
  <rect x="1450" y="650" width="140" height="260" rx="15" fill="rgba(63,81,181,0.2)" stroke="rgba(255,255,255,0.15)" stroke-width="2"/>
  <rect x="1465" y="690" width="110" height="170" rx="4" fill="rgba(255,255,255,0.06)"/>
  <circle cx="1520" cy="895" r="10" stroke="rgba(255,255,255,0.15)" stroke-width="1.5" fill="none"/>
  <text x="960" y="520" font-size="60" fill="rgba(255,255,255,0.08)" text-anchor="middle" font-family="Arial">@</text>
  <circle cx="1700" cy="200" r="40" fill="rgba(63,81,181,0.12)"/>
  <circle cx="200" cy="850" r="50" fill="rgba(63,81,181,0.1)"/>
</svg>
