<svg xmlns="http://www.w3.org/2000/svg" viewBox="0 0 1920 1080" preserveAspectRatio="xMidYMid slice">
  <defs>
    <linearGradient id="fg2" x1="0%" y1="0%" x2="100%" y2="100%">
      <stop offset="0%" stop-color="#2d4a2b"/>
      <stop offset="50%" stop-color="#3a5f3e"/>
      <stop offset="100%" stop-color="#1e3a1f"/>
    </linearGradient>
  </defs>
  <rect width="1920" height="1080" fill="url(#fg2)"/>
  <circle cx="960" cy="520" r="280" stroke="rgba(255,255,255,0.15)" stroke-width="4" fill="none"/>
  <circle cx="960" cy="520" r="240" stroke="rgba(255,255,255,0.08)" stroke-width="2" fill="none"/>
  <rect x="620" y="280" width="8" height="480" rx="4" fill="rgba(255,255,255,0.12)"/>
  <rect x="600" y="280" width="8" height="180" rx="4" fill="rgba(255,255,255,0.12)"/>
  <rect x="640" y="280" width="8" height="180" rx="4" fill="rgba(255,255,255,0.12)"/>
  <rect x="580" y="280" width="8" height="140" rx="4" fill="rgba(255,255,255,0.10)"/>
  <rect x="660" y="280" width="8" height="140" rx="4" fill="rgba(255,255,255,0.10)"/>
  <path d="M1280,280 L1290,280 L1295,460 L1280,760 L1275,760 L1280,460Z" fill="rgba(255,255,255,0.12)"/>
  <path d="M1295,280 Q1320,370 1295,460" fill="rgba(255,255,255,0.10)"/>
  <path d="M880,480 Q920,420 960,450 Q1000,420 1040,480 Q1000,500 960,470 Q920,500 880,480Z" fill="rgba(139,195,74,0.25)"/>
  <path d="M900,530 Q930,490 960,510 Q990,490 1020,530 Q990,545 960,520 Q930,545 900,530Z" fill="rgba(139,195,74,0.2)"/>
  <line x1="960" y1="445" x2="960" y2="540" stroke="rgba(139,195,74,0.15)" stroke-width="1.5"/>
  <path d="M300,200 Q330,160 360,200 Q330,215 300,200Z" fill="rgba(139,195,74,0.15)"/>
  <path d="M1550,800 Q1580,760 1610,800 Q1580,815 1550,800Z" fill="rgba(139,195,74,0.12)"/>
  <path d="M1650,300 Q1670,270 1690,300 Q1670,312 1650,300Z" fill="rgba(139,195,74,0.1)"/>
  <path d="M200,700 Q225,670 250,700 Q225,715 200,700Z" fill="rgba(139,195,74,0.1)"/>
  <circle cx="400" cy="350" r="50" fill="rgba(139,195,74,0.08)"/>
  <circle cx="1500" cy="650" r="60" fill="rgba(139,195,74,0.06)"/>
</svg>
