<svg xmlns="http://www.w3.org/2000/svg" viewBox="0 0 1920 1080" preserveAspectRatio="xMidYMid slice">
  <defs>
    <linearGradient id="fg3" x1="0%" y1="0%" x2="100%" y2="100%">
      <stop offset="0%" stop-color="#263238"/>
      <stop offset="50%" stop-color="#37474f"/>
      <stop offset="100%" stop-color="#1c262b"/>
    </linearGradient>
  </defs>
  <rect width="1920" height="1080" fill="url(#fg3)"/>
  <path d="M910,200 L910,300 Q870,330 870,400 L870,750 Q870,780 900,780 L1020,780 Q1050,780 1050,750 L1050,400 Q1050,330 1010,300 L1010,200Z" fill="rgba(96,125,139,0.25)"/>
  <rect x="900" y="170" width="120" height="40" rx="5" fill="rgba(96,125,139,0.3)"/>
  <rect x="920" y="150" width="80" height="25" rx="4" fill="rgba(96,125,139,0.35)"/>
  <rect x="890" y="450" width="140" height="180" rx="5" fill="rgba(96,125,139,0.15)"/>
  <path d="M500,550 L560,450 L620,550Z" stroke="rgba(255,193,7,0.4)" stroke-width="3" fill="none"/>
  <text x="560" y="535" font-size="40" fill="rgba(255,193,7,0.4)" text-anchor="middle" font-weight="bold">!</text>
  <path d="M1300,350 Q1280,300 1320,280 L1420,280 Q1460,300 1440,350 L1450,700 Q1450,730 1420,730 L1320,730 Q1290,730 1290,700Z" fill="rgba(96,125,139,0.15)" stroke="rgba(96,125,139,0.25)" stroke-width="2"/>
  <path d="M1320,280 Q1330,250 1350,260" stroke="rgba(96,125,139,0.2)" stroke-width="2" fill="none"/>
  <path d="M1420,280 Q1410,250 1390,260" stroke="rgba(96,125,139,0.2)" stroke-width="2" fill="none"/>
  <rect x="300" y="400" width="160" height="280" rx="10" fill="rgba(96,125,139,0.2)"/>
  <ellipse cx="380" cy="400" rx="80" ry="20" fill="rgba(96,125,139,0.25)"/>
  <ellipse cx="380" cy="680" rx="80" ry="20" fill="rgba(96,125,139,0.15)"/>
  <path d="M940,880 L960,850 L980,880" stroke="rgba(96,125,139,0.2)" stroke-width="2" fill="none"/>
  <path d="M980,880 L975,910 L955,895" stroke="rgba(96,125,139,0.2)" stroke-width="2" fill="none"/>
  <path d="M955,895 L935,905 L940,880" stroke="rgba(96,125,139,0.2)" stroke-width="2" fill="none"/>
  <circle cx="200" cy="200" r="40" fill="rgba(96,125,139,0.08)"/>
  <circle cx="1700" cy="900" r="50" fill="rgba(96,125,139,0.06)"/>
</svg>
